<svg xmlns="http://www.w3.org/2000/svg" xmlns:xlink="http://www.w3.org/1999/xlink" width="1200" zoomAndPan="magnify" viewBox="0 0 900 899.99999" height="1200" preserveAspectRatio="xMidYMid meet" version="1.0"><rect x="-90" width="1080" fill="#ffffff" y="-89.999999" height="1079.999988" fill-opacity="1"/><rect x="-90" width="1080" fill="#ffffff" y="-89.999999" height="1079.999988" fill-opacity="1"/><path fill="#fad209" d="M 881.570312 454.710938 L 604.339844 174.652344 C 550.792969 120.558594 440.824219 220.617188 505.328125 283.566406 L 680.71875 454.710938 L 499.671875 623.03125 C 444.542969 674.285156 546.664062 779.46875 601.511719 726.285156 Z M 881.570312 454.710938 " fill-opacity="1" fill-rule="nonzero"/><path fill="#5addbd" d="M 661.164062 454.710938 L 383.933594 174.652344 C 330.386719 120.558594 220.417969 220.617188 284.921875 283.566406 L 460.3125 454.710938 L 279.265625 623.03125 C 224.132812 674.285156 326.257812 779.46875 381.105469 726.285156 Z M 661.164062 454.710938 " fill-opacity="1" fill-rule="nonzero"/><path fill="#196d9c" d="M 440.757812 454.710938 L 163.527344 174.652344 C 109.976562 120.558594 0.0078125 220.617188 64.515625 283.566406 L 239.90625 454.710938 L 58.855469 623.03125 C 3.726562 674.285156 105.847656 779.46875 160.695312 726.285156 Z M 440.757812 454.710938 " fill-opacity="1" fill-rule="nonzero"/></svg>